<svg width="768" height="168" viewBox="0 0 768 168" fill="none" xmlns="http://www.w3.org/2000/svg">
<g clip-path="url(#clip0_2140:452904)">
<rect width="768" height="168" fill="#9747FF"/>
<rect x="-208" width="1615" height="168" rx="16" fill="#9747FF"/>
<path d="M412.418 50.1642C358.613 69.1674 350.435 132.497 361.028 172.697L560.715 364.842L732.286 193.271C741.161 167.232 799.732 108.321 704.783 50.1641C638.714 9.69697 560.281 68.7504 539.667 124.25C543.935 98.9109 486.795 23.8952 412.418 50.1642Z" fill="#8894FF"/>
<path d="M609.33 32.3647H519.408V121.414H609.33V32.3647Z" fill="white"/>
<path fill-rule="evenodd" clip-rule="evenodd" d="M517.662 32.0071C517.662 31.2403 518.284 30.6187 519.052 30.6187H609.687C610.454 30.6187 611.076 31.2403 611.076 32.0071V120.899C611.076 121.665 610.454 122.287 609.687 122.287H519.052C518.284 122.287 517.662 121.665 517.662 120.899V32.0071ZM520.441 33.3955V119.51H608.297V33.3955H520.441Z" fill="black"/>
<path d="M766.429 64.7349H715.311V171.806H766.429V64.7349Z" fill="white"/>
<path fill-rule="evenodd" clip-rule="evenodd" d="M713.929 64.7351C713.929 63.9721 714.548 63.3535 715.311 63.3535H766.429C767.192 63.3535 767.81 63.9721 767.81 64.7351V171.806C767.81 172.569 767.192 173.188 766.429 173.188H715.311C714.548 173.188 713.929 172.569 713.929 171.806V64.7351ZM716.692 66.1166V170.425H765.047V66.1166H716.692Z" fill="black"/>
<path d="M766.429 82.6756V81.8212C766.429 77.1756 764.7 72.7203 761.622 69.4355C758.544 66.1506 754.37 64.3052 750.018 64.3052H731.943C727.591 64.3052 723.417 66.1506 720.339 69.4355C717.261 72.7203 715.532 77.1756 715.532 81.8212V82.6756C715.532 86.2518 716.558 89.7423 718.471 92.678C720.385 95.6138 723.094 97.8541 726.236 99.0979C723.094 100.342 720.384 102.583 718.471 105.519C716.557 108.455 715.532 111.946 715.532 115.522V116.377C715.532 119.953 716.558 123.443 718.471 126.379C720.385 129.315 723.094 131.555 726.236 132.799C723.094 134.043 720.384 136.284 718.471 139.22C716.557 142.156 715.532 145.647 715.532 149.224V150.078C715.532 154.723 717.261 159.179 720.339 162.464C723.417 165.749 727.591 167.594 731.943 167.594H750.018C754.37 167.594 758.544 165.749 761.622 162.464C764.7 159.179 766.429 154.723 766.429 150.078V149.224C766.429 145.647 765.404 142.156 763.49 139.22C761.577 136.284 758.867 134.043 755.726 132.799C758.867 131.555 761.576 129.315 763.49 126.379C765.403 123.443 766.429 119.953 766.429 116.377V115.522C766.429 111.946 765.404 108.455 763.49 105.519C761.577 102.583 758.867 100.342 755.726 99.0979C758.867 97.8541 761.576 95.6138 763.49 92.678C765.403 89.7423 766.429 86.2518 766.429 82.6756Z" fill="#FFD500"/>
<path fill-rule="evenodd" clip-rule="evenodd" d="M719.331 68.4906C722.66 64.9377 727.194 62.9233 731.943 62.9233H750.018C754.767 62.9233 759.302 64.9377 762.63 68.4906C765.956 72.0404 767.81 76.8369 767.81 81.8209V82.6753C767.81 86.5136 766.71 90.2671 764.647 93.4321C763.126 95.7657 761.133 97.6999 758.822 99.0976C761.134 100.495 763.127 102.43 764.648 104.764C766.711 107.93 767.811 111.684 767.81 115.522C767.81 115.522 767.81 115.522 767.81 115.522V116.377C767.81 120.215 766.71 123.968 764.647 127.133C763.126 129.467 761.133 131.401 758.822 132.799C761.134 134.197 763.127 136.131 764.648 138.465C766.711 141.631 767.811 145.385 767.81 149.223C767.81 149.223 767.81 149.223 767.81 149.223V150.078C767.81 155.062 765.956 159.858 762.63 163.408C759.302 166.961 754.767 168.975 750.018 168.975H731.943C727.194 168.975 722.66 166.961 719.331 163.408C716.005 159.858 714.151 155.062 714.151 150.078V149.223C714.151 149.223 714.151 149.223 714.151 149.223C714.15 145.385 715.25 141.631 717.313 138.465C718.834 136.131 720.827 134.197 723.139 132.799C720.828 131.401 718.835 129.467 717.314 127.133C715.251 123.968 714.151 120.215 714.151 116.377V115.522C714.151 115.522 714.151 115.522 714.151 115.522C714.15 111.684 715.25 107.93 717.313 104.764C718.834 102.43 720.827 100.495 723.139 99.0976C720.828 97.6999 718.835 95.7657 717.314 93.4321C715.251 90.2671 714.151 86.5136 714.151 82.6753V81.8209C714.151 76.8369 716.005 72.0404 719.331 68.4906ZM731.943 65.6865C727.987 65.6865 724.174 67.3629 721.347 70.3798C718.518 73.3997 716.914 77.5138 716.914 81.8209V82.6753C716.914 85.9895 717.865 89.2169 719.629 91.9234C721.392 94.629 723.879 96.6786 726.744 97.8131L729.988 99.0976L726.744 100.382C723.879 101.517 721.392 103.567 719.628 106.273C717.864 108.98 716.913 112.207 716.914 115.522V116.377C716.914 119.691 717.865 122.918 719.629 125.625C721.392 128.33 723.879 130.38 726.744 131.514L729.988 132.799L726.744 134.083C723.879 135.218 721.392 137.268 719.628 139.974C717.864 142.681 716.913 145.909 716.914 149.223V150.078C716.914 154.385 718.518 158.499 721.347 161.519C724.174 164.536 727.987 166.212 731.943 166.212H750.018C753.974 166.212 757.787 164.536 760.614 161.519C763.443 158.499 765.047 154.385 765.047 150.078V149.223C765.048 145.909 764.097 142.681 762.333 139.974C760.57 137.268 758.082 135.218 755.217 134.083L751.973 132.799L755.217 131.514C758.082 130.38 760.569 128.33 762.332 125.625C764.096 122.918 765.047 119.691 765.047 116.377V115.522C765.048 112.208 764.097 108.98 762.333 106.273C760.57 103.567 758.082 101.517 755.217 100.382L751.973 99.0976L755.217 97.8131C758.082 96.6786 760.569 94.629 762.332 91.9234C764.096 89.2169 765.047 85.9895 765.047 82.6753V81.8209C765.047 77.5138 763.443 73.3997 760.614 70.3798C757.787 67.3629 753.974 65.6865 750.018 65.6865H731.943Z" fill="black"/>
<path d="M609.33 70.5565H579.808L600.685 49.8856L591.64 40.9275L570.764 61.5985V32.3647H557.975V61.5985L537.098 40.9275L528.054 49.8856L548.928 70.5565H519.408V83.2252H548.928L528.054 103.896L537.098 112.851L557.975 92.1803V121.414H570.764V92.1803L591.64 112.851L600.685 103.896L579.808 83.2252H609.33V70.5565Z" fill="#E498FF"/>
<path fill-rule="evenodd" clip-rule="evenodd" d="M556.534 32.0071C556.534 31.2403 557.157 30.6187 557.924 30.6187H570.814C571.582 30.6187 572.204 31.2403 572.204 32.0071V57.8807L590.883 39.5638C591.424 39.0337 592.29 39.0337 592.83 39.564L601.946 48.5062C602.212 48.7673 602.362 49.1243 602.362 49.497C602.362 49.8696 602.212 50.2266 601.946 50.4877L583.33 68.7428H609.687C610.454 68.7428 611.076 69.3644 611.076 70.1312V82.7774C611.076 83.5442 610.454 84.1658 609.687 84.1658H583.33L601.946 102.421C602.212 102.682 602.362 103.039 602.362 103.412C602.362 103.785 602.212 104.142 601.946 104.403L592.83 113.342C592.289 113.872 591.423 113.872 590.883 113.342L572.204 95.025V120.899C572.204 121.665 571.582 122.287 570.814 122.287H557.924C557.157 122.287 556.534 121.665 556.534 120.899V95.025L537.855 113.342C537.315 113.872 536.449 113.872 535.908 113.342L526.792 104.403C526.526 104.142 526.376 103.785 526.376 103.412C526.376 103.039 526.526 102.682 526.792 102.421L545.406 84.1658H519.052C518.284 84.1658 517.662 83.5442 517.662 82.7774V70.1312C517.662 69.3644 518.284 68.7428 519.052 68.7428H545.406L526.792 50.4876C526.526 50.2265 526.376 49.8696 526.376 49.4969C526.376 49.1243 526.526 48.7673 526.792 48.5062L535.908 39.564C536.449 39.0337 537.315 39.0337 537.855 39.5638L556.534 57.8807V32.0071ZM559.314 33.3955V61.1891C559.314 61.7483 558.978 62.2529 558.462 62.4693C557.946 62.6857 557.35 62.5716 556.951 62.1799L536.882 42.5003L529.75 49.4967L549.779 69.1404C550.182 69.5355 550.305 70.1347 550.092 70.6566C549.878 71.1786 549.37 71.5196 548.805 71.5196H520.441V81.389H548.805C549.37 81.389 549.878 81.7301 550.092 82.252C550.305 82.774 550.182 83.3732 549.779 83.7682L529.75 103.412L536.882 110.406L556.951 90.7258C557.35 90.3341 557.946 90.22 558.462 90.4364C558.978 90.6528 559.314 91.1574 559.314 91.7167V119.51H569.424V91.7167C569.424 91.1574 569.76 90.6528 570.276 90.4364C570.792 90.22 571.388 90.3341 571.788 90.7258L591.856 110.406L598.988 103.412L578.956 83.7683C578.554 83.3733 578.43 82.7741 578.644 82.2521C578.857 81.7301 579.366 81.389 579.93 81.389H608.297V71.5196H579.93C579.366 71.5196 578.857 71.1785 578.644 70.6566C578.43 70.1346 578.554 69.5354 578.956 69.1404L598.988 49.4967L591.856 42.5003L571.788 62.1799C571.388 62.5716 570.792 62.6857 570.276 62.4693C569.76 62.2529 569.424 61.7483 569.424 61.1891V33.3955H559.314Z" fill="black"/>
<path d="M891.806 1.87354H715.187V65.4255H891.806V1.87354Z" fill="#E498FF"/>
<path fill-rule="evenodd" clip-rule="evenodd" d="M713.805 1.87375C713.805 1.11074 714.424 0.492188 715.187 0.492188H891.806C892.569 0.492188 893.187 1.11074 893.187 1.87375V65.4257C893.187 66.1887 892.569 66.8073 891.806 66.8073H715.187C714.424 66.8073 713.805 66.1887 713.805 65.4257V1.87375ZM716.568 3.25532V64.0442H890.424V3.25532H716.568Z" fill="black"/>
<path d="M891.806 1.87354V65.4255L803.496 39.0031L715.187 65.4255V1.87354L803.496 28.2936L891.806 1.87354Z" fill="white"/>
<path fill-rule="evenodd" clip-rule="evenodd" d="M714.362 0.765656C714.712 0.504941 715.165 0.425043 715.583 0.550165L803.496 26.8518L891.41 0.550165C891.828 0.425043 892.281 0.504941 892.631 0.765656C892.981 1.02637 893.187 1.43723 893.187 1.87376V65.4257C893.187 65.8623 892.981 66.2731 892.631 66.5339C892.281 66.7946 891.828 66.8745 891.41 66.7493L803.496 40.4454L715.583 66.7493C715.165 66.8745 714.712 66.7946 714.362 66.5339C714.011 66.2731 713.805 65.8623 713.805 65.4257V1.87376C713.805 1.43723 714.011 1.02637 714.362 0.765656ZM716.568 3.72916V63.5703L803.1 37.6797C803.359 37.6024 803.634 37.6024 803.892 37.6797L890.424 63.5703V3.72917L803.892 29.6175C803.634 29.6947 803.359 29.6947 803.1 29.6175L716.568 3.72916Z" fill="black"/>
<path d="M714.967 70.7778H609.33V213.082H714.967V70.7778Z" fill="#8894FF"/>
<path fill-rule="evenodd" clip-rule="evenodd" d="M608.457 70.4147C608.457 69.6509 609.075 69.0317 609.837 69.0317H715.333C716.095 69.0317 716.713 69.6509 716.713 70.4147V213.445C716.713 214.209 716.095 214.828 715.333 214.828H609.837C609.075 214.828 608.457 214.209 608.457 213.445V70.4147ZM611.217 71.7977V212.062H713.953V71.7977H611.217Z" fill="black"/>
<path d="M629.847 95.2229C633.945 95.2229 637.267 91.7051 637.267 87.3656C637.267 83.0261 633.945 79.5083 629.847 79.5083C625.748 79.5083 622.426 83.0261 622.426 87.3656C622.426 91.7051 625.748 95.2229 629.847 95.2229Z" fill="white"/>
<path fill-rule="evenodd" clip-rule="evenodd" d="M629.41 82.1266C626.08 82.1266 623.408 84.6821 623.408 87.8021C623.408 90.9221 626.08 93.4777 629.41 93.4777C632.74 93.4777 635.412 90.9221 635.412 87.8021C635.412 84.6821 632.74 82.1266 629.41 82.1266ZM620.68 87.8021C620.68 83.2071 624.604 79.5083 629.41 79.5083C634.216 79.5083 638.14 83.2071 638.14 87.8021C638.14 92.3972 634.216 96.0959 629.41 96.0959C624.604 96.0959 620.68 92.3972 620.68 87.8021Z" fill="black"/>
<path d="M651.236 95.2229C655.093 95.2229 658.22 91.7051 658.22 87.3656C658.22 83.0261 655.093 79.5083 651.236 79.5083C647.378 79.5083 644.251 83.0261 644.251 87.3656C644.251 91.7051 647.378 95.2229 651.236 95.2229Z" fill="#FF8900"/>
<path fill-rule="evenodd" clip-rule="evenodd" d="M651.672 82.1266C648.61 82.1266 646.061 84.6315 646.061 87.8021C646.061 90.9727 648.61 93.4777 651.672 93.4777C654.735 93.4777 657.283 90.9727 657.283 87.8021C657.283 84.6315 654.735 82.1266 651.672 82.1266ZM643.378 87.8021C643.378 83.2577 647.055 79.5083 651.672 79.5083C656.289 79.5083 659.966 83.2577 659.966 87.8021C659.966 92.3466 656.289 96.0959 651.672 96.0959C647.055 96.0959 643.378 92.3466 643.378 87.8021Z" fill="black"/>
<path d="M673.935 95.2229C677.792 95.2229 680.919 91.7051 680.919 87.3656C680.919 83.0261 677.792 79.5083 673.935 79.5083C670.077 79.5083 666.95 83.0261 666.95 87.3656C666.95 91.7051 670.077 95.2229 673.935 95.2229Z" fill="white"/>
<path fill-rule="evenodd" clip-rule="evenodd" d="M673.498 82.1266C670.545 82.1266 667.984 84.5777 667.984 87.8021C667.984 91.0265 670.545 93.4777 673.498 93.4777C676.451 93.4777 679.012 91.0265 679.012 87.8021C679.012 84.5778 676.451 82.1266 673.498 82.1266ZM665.204 87.8021C665.204 83.3114 668.826 79.5083 673.498 79.5083C678.171 79.5083 681.792 83.3114 681.792 87.8021C681.792 92.2928 678.171 96.0959 673.498 96.0959C668.826 96.0959 665.204 92.2928 665.204 87.8021Z" fill="black"/>
<path d="M695.76 95.2229C699.618 95.2229 702.745 91.7051 702.745 87.3656C702.745 83.0261 699.618 79.5083 695.76 79.5083C691.903 79.5083 688.776 83.0261 688.776 87.3656C688.776 91.7051 691.903 95.2229 695.76 95.2229Z" fill="#FF8900"/>
<path fill-rule="evenodd" clip-rule="evenodd" d="M695.76 82.1266C692.963 82.1266 690.537 84.5778 690.537 87.8021C690.537 91.0265 692.963 93.4777 695.76 93.4777C698.558 93.4777 700.984 91.0265 700.984 87.8021C700.984 84.5777 698.558 82.1266 695.76 82.1266ZM687.903 87.8021C687.903 83.3114 691.334 79.5083 695.76 79.5083C700.187 79.5083 703.618 83.3114 703.618 87.8021C703.618 92.2928 700.187 96.0959 695.76 96.0959C691.334 96.0959 687.903 92.2928 687.903 87.8021Z" fill="black"/>
<path d="M629.847 121.414C633.945 121.414 637.267 118.091 637.267 113.993C637.267 109.895 633.945 106.572 629.847 106.572C625.748 106.572 622.426 109.895 622.426 113.993C622.426 118.091 625.748 121.414 629.847 121.414Z" fill="#FF8900"/>
<path fill-rule="evenodd" clip-rule="evenodd" d="M629.41 107.72C626.08 107.72 623.408 110.545 623.408 113.993C623.408 117.441 626.08 120.266 629.41 120.266C632.74 120.266 635.412 117.441 635.412 113.993C635.412 110.545 632.74 107.72 629.41 107.72ZM620.68 113.993C620.68 108.914 624.604 104.826 629.41 104.826C634.216 104.826 638.14 108.914 638.14 113.993C638.14 119.072 634.216 123.16 629.41 123.16C624.604 123.16 620.68 119.072 620.68 113.993Z" fill="black"/>
<path d="M651.236 121.414C655.093 121.414 658.22 118.091 658.22 113.993C658.22 109.895 655.093 106.572 651.236 106.572C647.378 106.572 644.251 109.895 644.251 113.993C644.251 118.091 647.378 121.414 651.236 121.414Z" fill="white"/>
<path fill-rule="evenodd" clip-rule="evenodd" d="M651.672 107.72C648.61 107.72 646.061 110.489 646.061 113.993C646.061 117.497 648.61 120.266 651.672 120.266C654.735 120.266 657.283 117.497 657.283 113.993C657.283 110.489 654.735 107.72 651.672 107.72ZM643.378 113.993C643.378 108.97 647.055 104.826 651.672 104.826C656.289 104.826 659.966 108.97 659.966 113.993C659.966 119.016 656.289 123.16 651.672 123.16C647.055 123.16 643.378 119.016 643.378 113.993Z" fill="black"/>
<path d="M673.935 121.414C677.792 121.414 680.919 118.091 680.919 113.993C680.919 109.895 677.792 106.572 673.935 106.572C670.077 106.572 666.95 109.895 666.95 113.993C666.95 118.091 670.077 121.414 673.935 121.414Z" fill="#FF8900"/>
<path fill-rule="evenodd" clip-rule="evenodd" d="M673.498 107.72C670.545 107.72 667.984 110.429 667.984 113.993C667.984 117.557 670.545 120.266 673.498 120.266C676.451 120.266 679.012 117.557 679.012 113.993C679.012 110.429 676.451 107.72 673.498 107.72ZM665.204 113.993C665.204 109.03 668.826 104.826 673.498 104.826C678.171 104.826 681.792 109.03 681.792 113.993C681.792 118.956 678.171 123.16 673.498 123.16C668.826 123.16 665.204 118.956 665.204 113.993Z" fill="black"/>
<path d="M695.76 121.414C699.618 121.414 702.745 118.091 702.745 113.993C702.745 109.895 699.618 106.572 695.76 106.572C691.903 106.572 688.776 109.895 688.776 113.993C688.776 118.091 691.903 121.414 695.76 121.414Z" fill="white"/>
<path fill-rule="evenodd" clip-rule="evenodd" d="M695.76 107.72C692.963 107.72 690.537 110.429 690.537 113.993C690.537 117.557 692.963 120.266 695.76 120.266C698.558 120.266 700.984 117.557 700.984 113.993C700.984 110.429 698.558 107.72 695.76 107.72ZM687.903 113.993C687.903 109.03 691.334 104.826 695.76 104.826C700.187 104.826 703.618 109.03 703.618 113.993C703.618 118.956 700.187 123.16 695.76 123.16C691.334 123.16 687.903 118.956 687.903 113.993Z" fill="black"/>
<path d="M629.847 149.351C633.945 149.351 637.267 146.028 637.267 141.93C637.267 137.832 633.945 134.509 629.847 134.509C625.748 134.509 622.426 137.832 622.426 141.93C622.426 146.028 625.748 149.351 629.847 149.351Z" fill="white"/>
<path fill-rule="evenodd" clip-rule="evenodd" d="M629.41 135.433C626.129 135.433 623.408 138.113 623.408 141.494C623.408 144.874 626.129 147.554 629.41 147.554C632.691 147.554 635.412 144.874 635.412 141.494C635.412 138.113 632.691 135.433 629.41 135.433ZM620.68 141.494C620.68 136.705 624.555 132.763 629.41 132.763C634.265 132.763 638.14 136.705 638.14 141.494C638.14 146.282 634.265 150.224 629.41 150.224C624.555 150.224 620.68 146.282 620.68 141.494Z" fill="black"/>
<path d="M651.236 149.351C655.093 149.351 658.22 146.028 658.22 141.93C658.22 137.832 655.093 134.509 651.236 134.509C647.378 134.509 644.251 137.832 644.251 141.93C644.251 146.028 647.378 149.351 651.236 149.351Z" fill="#FF8900"/>
<path fill-rule="evenodd" clip-rule="evenodd" d="M651.672 135.433C648.656 135.433 646.061 138.061 646.061 141.494C646.061 144.926 648.656 147.554 651.672 147.554C654.688 147.554 657.283 144.926 657.283 141.494C657.283 138.061 654.688 135.433 651.672 135.433ZM643.378 141.494C643.378 136.757 647.009 132.763 651.672 132.763C656.336 132.763 659.966 136.757 659.966 141.494C659.966 146.23 656.336 150.224 651.672 150.224C647.009 150.224 643.378 146.23 643.378 141.494Z" fill="black"/>
<path d="M673.935 149.351C677.792 149.351 680.919 146.028 680.919 141.93C680.919 137.832 677.792 134.509 673.935 134.509C670.077 134.509 666.95 137.832 666.95 141.93C666.95 146.028 670.077 149.351 673.935 149.351Z" fill="white"/>
<path fill-rule="evenodd" clip-rule="evenodd" d="M673.498 135.433C670.592 135.433 667.984 138.005 667.984 141.494C667.984 144.982 670.592 147.554 673.498 147.554C676.404 147.554 679.012 144.982 679.012 141.494C679.012 138.005 676.404 135.433 673.498 135.433ZM665.204 141.494C665.204 136.813 668.779 132.763 673.498 132.763C678.218 132.763 681.792 136.813 681.792 141.494C681.792 146.174 678.218 150.224 673.498 150.224C668.779 150.224 665.204 146.174 665.204 141.494Z" fill="black"/>
<path d="M695.76 149.351C699.618 149.351 702.745 146.028 702.745 141.93C702.745 137.832 699.618 134.509 695.76 134.509C691.903 134.509 688.776 137.832 688.776 141.93C688.776 146.028 691.903 149.351 695.76 149.351Z" fill="#FF8900"/>
<path fill-rule="evenodd" clip-rule="evenodd" d="M695.76 135.433C693.007 135.433 690.537 138.005 690.537 141.494C690.537 144.982 693.007 147.554 695.76 147.554C698.514 147.554 700.984 144.982 700.984 141.494C700.984 138.005 698.514 135.433 695.76 135.433ZM687.903 141.494C687.903 136.813 691.289 132.763 695.76 132.763C700.232 132.763 703.618 136.813 703.618 141.494C703.618 146.174 700.232 150.224 695.76 150.224C691.289 150.224 687.903 146.174 687.903 141.494Z" fill="black"/>
<path d="M629.847 175.542C633.945 175.542 637.267 172.415 637.267 168.558C637.267 164.7 633.945 161.573 629.847 161.573C625.748 161.573 622.426 164.7 622.426 168.558C622.426 172.415 625.748 175.542 629.847 175.542Z" fill="#FF8900"/>
<path fill-rule="evenodd" clip-rule="evenodd" d="M629.41 163.406C626.029 163.406 623.408 165.972 623.408 168.994C623.408 172.016 626.029 174.582 629.41 174.582C632.791 174.582 635.412 172.016 635.412 168.994C635.412 165.972 632.791 163.406 629.41 163.406ZM620.68 168.994C620.68 164.349 624.655 160.7 629.41 160.7C634.165 160.7 638.14 164.349 638.14 168.994C638.14 173.639 634.165 177.288 629.41 177.288C624.655 177.288 620.68 173.639 620.68 168.994Z" fill="black"/>
<path d="M651.236 175.542C655.093 175.542 658.22 172.415 658.22 168.558C658.22 164.7 655.093 161.573 651.236 161.573C647.378 161.573 644.251 164.7 644.251 168.558C644.251 172.415 647.378 175.542 651.236 175.542Z" fill="white"/>
<path fill-rule="evenodd" clip-rule="evenodd" d="M651.672 163.406C648.56 163.406 646.061 165.921 646.061 168.994C646.061 172.067 648.56 174.582 651.672 174.582C654.784 174.582 657.283 172.067 657.283 168.994C657.283 165.921 654.784 163.406 651.672 163.406ZM643.378 168.994C643.378 164.401 647.105 160.7 651.672 160.7C656.24 160.7 659.966 164.401 659.966 168.994C659.966 173.588 656.24 177.288 651.672 177.288C647.105 177.288 643.378 173.588 643.378 168.994Z" fill="black"/>
<path d="M673.935 175.542C677.792 175.542 680.919 172.415 680.919 168.558C680.919 164.7 677.792 161.573 673.935 161.573C670.077 161.573 666.95 164.7 666.95 168.558C666.95 172.415 670.077 175.542 673.935 175.542Z" fill="#FF8900"/>
<path fill-rule="evenodd" clip-rule="evenodd" d="M673.498 163.406C670.495 163.406 667.984 165.866 667.984 168.994C667.984 172.122 670.495 174.582 673.498 174.582C676.501 174.582 679.012 172.122 679.012 168.994C679.012 165.866 676.501 163.406 673.498 163.406ZM665.204 168.994C665.204 164.455 668.876 160.7 673.498 160.7C678.121 160.7 681.792 164.455 681.792 168.994C681.792 173.533 678.121 177.288 673.498 177.288C668.876 177.288 665.204 173.533 665.204 168.994Z" fill="black"/>
<path d="M695.76 175.542C699.618 175.542 702.745 172.415 702.745 168.558C702.745 164.7 699.618 161.573 695.76 161.573C691.903 161.573 688.776 164.7 688.776 168.558C688.776 172.415 691.903 175.542 695.76 175.542Z" fill="white"/>
<path fill-rule="evenodd" clip-rule="evenodd" d="M695.76 163.406C692.915 163.406 690.537 165.866 690.537 168.994C690.537 172.122 692.915 174.582 695.76 174.582C698.605 174.582 700.984 172.122 700.984 168.994C700.984 165.866 698.605 163.406 695.76 163.406ZM687.903 168.994C687.903 164.455 691.381 160.7 695.76 160.7C700.14 160.7 703.618 164.455 703.618 168.994C703.618 173.533 700.14 177.288 695.76 177.288C691.381 177.288 687.903 173.533 687.903 168.994Z" fill="black"/>
<path d="M519.203 167.104L519.203 81.7681L427.329 81.7681L427.329 167.104L519.203 167.104Z" fill="#FF8900"/>
<path fill-rule="evenodd" clip-rule="evenodd" d="M519.203 80.3862C519.966 80.3862 520.585 81.0048 520.585 81.7678L520.585 167.103C520.585 167.866 519.966 168.485 519.203 168.485L427.329 168.485C426.566 168.485 425.948 167.866 425.948 167.103L425.948 81.7678C425.948 81.0048 426.566 80.3862 427.329 80.3862L519.203 80.3862ZM517.822 83.1494L428.711 83.1494L428.711 165.722L517.822 165.722L517.822 83.1494Z" fill="black"/>
<path d="M519.203 142.108L519.203 106.761L492.293 81.7681L454.237 81.7681L427.329 106.761L427.329 142.108L454.237 167.104L492.293 167.104L519.203 142.108Z" fill="white"/>
<path fill-rule="evenodd" clip-rule="evenodd" d="M520.144 105.748C520.425 106.01 520.585 106.376 520.585 106.761L520.585 142.108C520.585 142.492 520.425 142.859 520.144 143.12L493.234 168.116C492.978 168.353 492.642 168.485 492.293 168.485L454.237 168.485C453.888 168.485 453.553 168.353 453.297 168.116L426.389 143.12C426.108 142.859 425.948 142.492 425.948 142.108L425.948 106.761C425.948 106.376 426.108 106.01 426.389 105.748L453.297 80.7555C453.553 80.5182 453.888 80.3862 454.237 80.3862L492.293 80.3862C492.642 80.3862 492.978 80.5181 493.234 80.7555L520.144 105.748ZM517.822 107.363L491.751 83.1494L454.78 83.1494L428.711 107.363L428.711 141.506L454.78 165.722L491.751 165.722L517.822 141.506L517.822 107.363Z" fill="black"/>
</g>
<defs>
<clipPath id="clip0_2140:452904">
<rect width="768" height="168" fill="white"/>
</clipPath>
</defs>
</svg>
