<svg class="svg" width="32" height="32" viewBox="0 0 32 32" xmlns="http://www.w3.org/2000/svg"><path d="M8.518 16c.219 3.104 2.46 5.649 5.415 6.324-.81-1.325-1.365-3.646-1.427-6.324H8.518zm6.982 7.5c-4.418 0-8-3.582-8-8 0-4.418 3.582-8 8-8 4.418 0 8 3.582 8 8 0 4.418-3.582 8-8 8zM13.934 8.676c-2.955.675-5.197 3.22-5.416 6.324h3.988c.062-2.678.618-5 1.428-6.324zm3.133 0c2.954.675 5.196 3.22 5.415 6.324h-3.988c-.062-2.678-.618-5-1.427-6.324zM22.482 16c-.219 3.104-2.46 5.649-5.415 6.324.81-1.325 1.365-3.646 1.427-6.324h3.988zm-5.797 4.806c.452-1.206.763-2.891.809-4.806h-3.988c.046 1.915.357 3.6.809 4.806.247.658.517 1.121.766 1.402.25.282.394.292.419.292.025 0 .17-.01.42-.292.248-.28.518-.744.765-1.402zm-2.37-10.612c-.452 1.205-.762 2.891-.809 4.806h3.988c-.046-1.915-.357-3.6-.809-4.806-.247-.658-.517-1.121-.765-1.402-.25-.282-.395-.292-.42-.292-.025 0-.17.01-.42.292-.248.28-.518.744-.765 1.402z" fill-rule="evenodd" fill-opacity=".8" fill="#fff" stroke="none"></path></svg>