<svg width="1615" height="168" viewBox="0 0 1615 168" fill="none" xmlns="http://www.w3.org/2000/svg">
<g clip-path="url(#clip0)">
<path d="M0 16C0 7.16344 7.16344 0 16 0H1599C1607.84 0 1615 7.16344 1615 16V152C1615 160.837 1607.84 168 1599 168H16C7.16345 168 0 160.837 0 152V16Z" fill="#9747FF"/>
<rect width="1615" height="150.656" rx="16" fill="#9747FF"/>
<path d="M1271.67 149.153C1215 231.5 1264.44 303.541 1309.83 330L1660 323.26V16.6063C1644.66 -14.5958 1585.85 -77 1473.32 -77C1360.79 -77 1395.01 59.0411 1426.18 127.062C1407.35 100.602 1309.83 93.7082 1271.67 149.153Z" fill="#8894FF"/>
<path d="M329.5 103.483C261.5 127.5 251.164 207.537 264.552 258.344L516.922 501.183L733.759 284.346C744.977 251.437 819 176.983 699 103.483C615.5 52.3395 516.374 126.973 490.321 197.115C495.716 165.091 423.5 70.2836 329.5 103.483Z" fill="#8894FF"/>
<path d="M943.431 45.3828H813V173.431H943.431V45.3828Z" fill="white"/>
<path fill-rule="evenodd" clip-rule="evenodd" d="M811 45.3828C811 44.2782 811.895 43.3828 813 43.3828H943.431C944.536 43.3828 945.431 44.2782 945.431 45.3828V173.431C945.431 174.536 944.536 175.431 943.431 175.431H813C811.895 175.431 811 174.536 811 173.431V45.3828ZM815 47.3828V171.431H941.431V47.3828H815Z" fill="black"/>
<path d="M1170.5 94H1096.5V249H1170.5V94Z" fill="white"/>
<path fill-rule="evenodd" clip-rule="evenodd" d="M1094.5 94C1094.5 92.8954 1095.4 92 1096.5 92H1170.5C1171.6 92 1172.5 92.8954 1172.5 94V249C1172.5 250.105 1171.6 251 1170.5 251H1096.5C1095.4 251 1094.5 250.105 1094.5 249V94ZM1098.5 96V247H1168.5V96H1098.5Z" fill="black"/>
<path d="M1170.5 119.971V118.734C1170.5 112.009 1168 105.56 1163.54 100.804C1159.09 96.0489 1153.04 93.3774 1146.74 93.3774H1120.58C1114.28 93.3774 1108.23 96.0489 1103.78 100.804C1099.32 105.56 1096.82 112.009 1096.82 118.734V119.971C1096.82 125.148 1098.31 130.201 1101.07 134.451C1103.84 138.701 1107.77 141.944 1112.31 143.745C1107.77 145.545 1103.84 148.789 1101.07 153.04C1098.3 157.29 1096.82 162.344 1096.82 167.521V168.758C1096.82 173.935 1098.31 178.988 1101.07 183.238C1103.84 187.488 1107.77 190.731 1112.31 192.532C1107.77 194.332 1103.84 197.576 1101.07 201.826C1098.3 206.077 1096.82 211.131 1096.82 216.308V217.545C1096.82 224.27 1099.32 230.72 1103.78 235.475C1108.23 240.23 1114.28 242.902 1120.58 242.902H1146.74C1153.04 242.902 1159.09 240.23 1163.54 235.475C1168 230.72 1170.5 224.27 1170.5 217.545V216.308C1170.5 211.131 1169.02 206.077 1166.25 201.826C1163.48 197.576 1159.55 194.332 1155.01 192.532C1159.55 190.731 1163.48 187.488 1166.25 183.238C1169.02 178.988 1170.5 173.935 1170.5 168.758V167.521C1170.5 162.344 1169.02 157.29 1166.25 153.04C1163.48 148.789 1159.55 145.545 1155.01 143.745C1159.55 141.944 1163.48 138.701 1166.25 134.451C1169.02 130.201 1170.5 125.148 1170.5 119.971Z" fill="#FFD500"/>
<path fill-rule="evenodd" clip-rule="evenodd" d="M1102.32 99.4368C1107.14 94.2935 1113.7 91.3774 1120.58 91.3774H1146.74C1153.62 91.3774 1160.18 94.2935 1165 99.4368C1169.82 104.576 1172.5 111.519 1172.5 118.734V119.971C1172.5 125.527 1170.91 130.961 1167.92 135.543C1165.72 138.921 1162.83 141.721 1159.49 143.745C1162.83 145.768 1165.72 148.569 1167.92 151.948C1170.91 156.53 1172.5 161.964 1172.5 167.521C1172.5 167.521 1172.5 167.521 1172.5 167.521V168.758C1172.5 174.314 1170.91 179.748 1167.92 184.33C1165.72 187.708 1162.83 190.508 1159.49 192.532C1162.83 194.555 1165.72 197.356 1167.92 200.735C1170.91 205.317 1172.5 210.751 1172.5 216.308C1172.5 216.308 1172.5 216.308 1172.5 216.308V217.545C1172.5 224.76 1169.82 231.704 1165 236.842C1160.18 241.986 1153.62 244.902 1146.74 244.902H1120.58C1113.7 244.902 1107.14 241.986 1102.32 236.842C1097.5 231.704 1094.82 224.76 1094.82 217.545V216.308C1094.82 216.308 1094.82 216.308 1094.82 216.308C1094.82 210.752 1096.41 205.317 1099.4 200.735C1101.6 197.356 1104.49 194.555 1107.83 192.532C1104.49 190.508 1101.6 187.708 1099.4 184.33C1096.41 179.748 1094.82 174.314 1094.82 168.758V167.521C1094.82 167.521 1094.82 167.521 1094.82 167.521C1094.82 161.965 1096.41 156.53 1099.4 151.948C1101.6 148.569 1104.49 145.768 1107.83 143.745C1104.49 141.721 1101.6 138.921 1099.4 135.543C1096.41 130.961 1094.82 125.527 1094.82 119.971V118.734C1094.82 111.519 1097.5 104.576 1102.32 99.4368ZM1120.58 95.3774C1114.85 95.3774 1109.33 97.8043 1105.24 102.172C1101.14 106.543 1098.82 112.499 1098.82 118.734V119.971C1098.82 124.769 1100.2 129.441 1102.75 133.359C1105.3 137.276 1108.9 140.243 1113.05 141.885L1117.75 143.745L1113.05 145.604C1108.9 147.246 1105.3 150.214 1102.75 154.131C1100.2 158.05 1098.82 162.723 1098.82 167.521V168.758C1098.82 173.556 1100.2 178.228 1102.75 182.146C1105.3 186.063 1108.9 189.03 1113.05 190.672L1117.75 192.532L1113.05 194.391C1108.9 196.033 1105.3 199.001 1102.75 202.918C1100.2 206.837 1098.82 211.51 1098.82 216.308V217.545C1098.82 223.78 1101.14 229.736 1105.24 234.108C1109.33 238.475 1114.85 240.902 1120.58 240.902H1146.74C1152.47 240.902 1157.99 238.475 1162.08 234.108C1166.18 229.736 1168.5 223.78 1168.5 217.545V216.308C1168.5 211.51 1167.12 206.837 1164.57 202.918C1162.02 199.001 1158.42 196.033 1154.27 194.391L1149.57 192.532L1154.27 190.672C1158.42 189.03 1162.02 186.063 1164.57 182.146C1167.12 178.228 1168.5 173.556 1168.5 168.758V167.521C1168.5 162.723 1167.12 158.05 1164.57 154.131C1162.02 150.214 1158.42 147.246 1154.27 145.604L1149.57 143.745L1154.27 141.885C1158.42 140.243 1162.02 137.276 1164.57 133.359C1167.12 129.441 1168.5 124.769 1168.5 119.971V118.734C1168.5 112.499 1166.18 106.543 1162.08 102.172C1157.99 97.8043 1152.47 95.3774 1146.74 95.3774H1120.58Z" fill="black"/>
<path d="M943.431 100.301H900.609L930.89 70.5769L917.772 57.6957L887.49 87.4195V45.3828H868.941V87.4195L838.659 57.6957L825.541 70.5769L855.818 100.301H813V118.518H855.818L825.541 148.241L838.659 161.118L868.941 131.395V173.431H887.49V131.395L917.772 161.118L930.89 148.241L900.609 118.518H943.431V100.301Z" fill="#E498FF"/>
<path fill-rule="evenodd" clip-rule="evenodd" d="M866.941 45.3828C866.941 44.2782 867.836 43.3828 868.941 43.3828H887.49C888.595 43.3828 889.49 44.2782 889.49 45.3828V82.6538L916.371 56.2684C917.149 55.5047 918.395 55.5048 919.173 56.2686L932.292 69.1498C932.675 69.5259 932.891 70.0402 932.89 70.577C932.89 71.1138 932.675 71.6281 932.291 72.0041L905.502 98.3007H943.431C944.536 98.3007 945.431 99.1961 945.431 100.301V118.518C945.431 119.622 944.536 120.518 943.431 120.518H905.502L932.291 146.814C932.675 147.19 932.89 147.705 932.89 148.241C932.89 148.778 932.675 149.293 932.291 149.669L919.173 162.546C918.395 163.309 917.149 163.309 916.371 162.546L889.49 136.16V173.431C889.49 174.536 888.595 175.431 887.49 175.431H868.941C867.836 175.431 866.941 174.536 866.941 173.431V136.16L840.06 162.546C839.282 163.309 838.036 163.309 837.258 162.546L824.14 149.669C823.756 149.293 823.541 148.778 823.541 148.242C823.541 147.705 823.756 147.19 824.14 146.814L850.926 120.518H813C811.895 120.518 811 119.622 811 118.518V100.301C811 99.1961 811.895 98.3007 813 98.3007H850.926L824.14 72.0041C823.756 71.628 823.541 71.1138 823.541 70.577C823.541 70.0402 823.756 69.5259 824.139 69.1498L837.258 56.2686C838.036 55.5048 839.282 55.5047 840.06 56.2684L866.941 82.6538V45.3828ZM870.941 47.3828V87.4195C870.941 88.2251 870.457 88.952 869.715 89.2637C868.972 89.5754 868.114 89.4111 867.54 88.8468L838.659 60.4984L828.395 70.5767L857.219 98.8735C857.799 99.4425 857.977 100.306 857.669 101.058C857.362 101.809 856.63 102.301 855.818 102.301H815V116.518H855.818C856.63 116.518 857.362 117.009 857.669 117.761C857.977 118.513 857.799 119.376 857.219 119.945L828.396 148.241L838.659 158.316L867.54 129.967C868.114 129.403 868.972 129.239 869.715 129.55C870.457 129.862 870.941 130.589 870.941 131.395V171.431H885.49V131.395C885.49 130.589 885.974 129.862 886.717 129.55C887.459 129.239 888.317 129.403 888.892 129.967L917.772 158.316L928.035 148.241L899.208 119.945C898.628 119.376 898.45 118.513 898.758 117.761C899.065 117.009 899.797 116.518 900.609 116.518H941.431V102.301H900.609C899.797 102.301 899.065 101.809 898.758 101.057C898.45 100.306 898.628 99.4424 899.208 98.8734L928.036 70.5766L917.772 60.4984L888.892 88.8468C888.317 89.4111 887.459 89.5754 886.717 89.2637C885.974 88.952 885.49 88.2251 885.49 87.4195V47.3828H870.941Z" fill="black"/>
<path d="M1352 2H1096.32V94H1352V2Z" fill="#E498FF"/>
<path fill-rule="evenodd" clip-rule="evenodd" d="M1094.32 2C1094.32 0.89543 1095.22 0 1096.32 0H1352C1353.1 0 1354 0.89543 1354 2V94C1354 95.1046 1353.1 96 1352 96H1096.32C1095.22 96 1094.32 95.1046 1094.32 94V2ZM1098.32 4V92H1350V4H1098.32Z" fill="black"/>
<path d="M1352 2V94L1224.16 55.75L1096.32 94V2L1224.16 40.2466L1352 2Z" fill="white"/>
<path fill-rule="evenodd" clip-rule="evenodd" d="M1095.13 0.395882C1095.63 0.0184629 1096.29 -0.0972004 1096.89 0.0839302L1224.16 38.159L1351.43 0.0839302C1352.03 -0.0972004 1352.69 0.0184629 1353.19 0.395882C1353.7 0.773301 1354 1.36807 1354 2.00002V94C1354 94.632 1353.7 95.2267 1353.19 95.6042C1352.69 95.9816 1352.03 96.0972 1351.43 95.9161L1224.16 57.8376L1096.89 95.9161C1096.29 96.0972 1095.63 95.9816 1095.13 95.6042C1094.62 95.2267 1094.32 94.632 1094.32 94V2.00002C1094.32 1.36807 1094.62 0.773301 1095.13 0.395882ZM1098.32 4.68596V91.314L1223.59 53.8339C1223.96 53.722 1224.36 53.722 1224.73 53.8339L1350 91.314V4.68596L1224.73 42.1627C1224.36 42.2746 1223.96 42.2746 1223.59 42.1627L1098.32 4.68596Z" fill="black"/>
<path d="M1096.32 78.3774H943.431V285.225H1096.32V78.3774Z" fill="#8894FF"/>
<path fill-rule="evenodd" clip-rule="evenodd" d="M941.431 78.3774C941.431 77.2729 942.327 76.3774 943.431 76.3774H1096.32C1097.43 76.3774 1098.32 77.2729 1098.32 78.3774V285.225C1098.32 286.329 1097.43 287.225 1096.32 287.225H943.431C942.327 287.225 941.431 286.329 941.431 285.225V78.3774ZM945.431 80.3774V283.225H1094.32V80.3774H945.431Z" fill="black"/>
<path d="M972.368 113.673C978.331 113.673 983.165 108.896 983.165 103.002C983.165 97.109 978.331 92.3315 972.368 92.3315C966.404 92.3315 961.57 97.109 961.57 103.002C961.57 108.896 966.404 113.673 972.368 113.673Z" fill="white"/>
<path fill-rule="evenodd" clip-rule="evenodd" d="M972.368 94.3315C967.487 94.3315 963.57 98.2357 963.57 103.002C963.57 107.769 967.487 111.673 972.368 111.673C977.248 111.673 981.165 107.769 981.165 103.002C981.165 98.2357 977.248 94.3315 972.368 94.3315ZM959.57 103.002C959.57 95.9822 965.322 90.3315 972.368 90.3315C979.413 90.3315 985.165 95.9823 985.165 103.002C985.165 110.022 979.413 115.673 972.368 115.673C965.322 115.673 959.57 110.022 959.57 103.002Z" fill="black"/>
<path d="M1003.9 113.673C1009.62 113.673 1014.26 108.896 1014.26 103.002C1014.26 97.109 1009.62 92.3315 1003.9 92.3315C998.171 92.3315 993.53 97.109 993.53 103.002C993.53 108.896 998.171 113.673 1003.9 113.673Z" fill="#FF8900"/>
<path fill-rule="evenodd" clip-rule="evenodd" d="M1003.9 94.3315C999.33 94.3315 995.53 98.1584 995.53 103.002C995.53 107.846 999.33 111.673 1003.9 111.673C1008.46 111.673 1012.26 107.846 1012.26 103.002C1012.26 98.1584 1008.46 94.3315 1003.9 94.3315ZM991.53 103.002C991.53 96.0595 997.012 90.3315 1003.9 90.3315C1010.78 90.3315 1016.26 96.0595 1016.26 103.002C1016.26 109.945 1010.78 115.673 1003.9 115.673C997.012 115.673 991.53 109.945 991.53 103.002Z" fill="black"/>
<path d="M1036.29 113.673C1041.77 113.673 1046.22 108.896 1046.22 103.002C1046.22 97.109 1041.77 92.3315 1036.29 92.3315C1030.8 92.3315 1026.35 97.109 1026.35 103.002C1026.35 108.896 1030.8 113.673 1036.29 113.673Z" fill="white"/>
<path fill-rule="evenodd" clip-rule="evenodd" d="M1036.29 94.3315C1032.04 94.3315 1028.35 98.0763 1028.35 103.002C1028.35 107.928 1032.04 111.673 1036.29 111.673C1040.54 111.673 1044.22 107.928 1044.22 103.002C1044.22 98.0763 1040.54 94.3315 1036.29 94.3315ZM1024.35 103.002C1024.35 96.1417 1029.56 90.3315 1036.29 90.3315C1043.01 90.3315 1048.22 96.1417 1048.22 103.002C1048.22 109.863 1043.01 115.673 1036.29 115.673C1029.56 115.673 1024.35 109.863 1024.35 103.002Z" fill="black"/>
<path d="M1068.25 113.673C1073.73 113.673 1078.18 108.896 1078.18 103.002C1078.18 97.109 1073.73 92.3315 1068.25 92.3315C1062.76 92.3315 1058.31 97.109 1058.31 103.002C1058.31 108.896 1062.76 113.673 1068.25 113.673Z" fill="#FF8900"/>
<path fill-rule="evenodd" clip-rule="evenodd" d="M1068.25 94.3315C1064 94.3315 1060.31 98.0763 1060.31 103.002C1060.31 107.928 1064 111.673 1068.25 111.673C1072.5 111.673 1076.18 107.928 1076.18 103.002C1076.18 98.0763 1072.5 94.3315 1068.25 94.3315ZM1056.31 103.002C1056.31 96.1417 1061.52 90.3315 1068.25 90.3315C1074.97 90.3315 1080.18 96.1417 1080.18 103.002C1080.18 109.863 1074.97 115.673 1068.25 115.673C1061.52 115.673 1056.31 109.863 1056.31 103.002Z" fill="black"/>
<path d="M972.368 152.252C978.331 152.252 983.165 147.474 983.165 141.581C983.165 135.688 978.331 130.91 972.368 130.91C966.404 130.91 961.57 135.688 961.57 141.581C961.57 147.474 966.404 152.252 972.368 152.252Z" fill="#FF8900"/>
<path fill-rule="evenodd" clip-rule="evenodd" d="M972.368 132.91C967.487 132.91 963.57 136.814 963.57 141.581C963.57 146.347 967.487 150.252 972.368 150.252C977.248 150.252 981.165 146.347 981.165 141.581C981.165 136.814 977.248 132.91 972.368 132.91ZM959.57 141.581C959.57 134.561 965.322 128.91 972.368 128.91C979.413 128.91 985.165 134.561 985.165 141.581C985.165 148.601 979.413 154.252 972.368 154.252C965.322 154.252 959.57 148.601 959.57 141.581Z" fill="black"/>
<path d="M1003.9 152.252C1009.62 152.252 1014.26 147.474 1014.26 141.581C1014.26 135.688 1009.62 130.91 1003.9 130.91C998.171 130.91 993.53 135.688 993.53 141.581C993.53 147.474 998.171 152.252 1003.9 152.252Z" fill="white"/>
<path fill-rule="evenodd" clip-rule="evenodd" d="M1003.9 132.91C999.33 132.91 995.53 136.737 995.53 141.581C995.53 146.425 999.33 150.252 1003.9 150.252C1008.46 150.252 1012.26 146.425 1012.26 141.581C1012.26 136.737 1008.46 132.91 1003.9 132.91ZM991.53 141.581C991.53 134.638 997.012 128.91 1003.9 128.91C1010.78 128.91 1016.26 134.638 1016.26 141.581C1016.26 148.524 1010.78 154.252 1003.9 154.252C997.012 154.252 991.53 148.524 991.53 141.581Z" fill="black"/>
<path d="M1036.29 152.252C1041.77 152.252 1046.22 147.474 1046.22 141.581C1046.22 135.688 1041.77 130.91 1036.29 130.91C1030.8 130.91 1026.35 135.688 1026.35 141.581C1026.35 147.474 1030.8 152.252 1036.29 152.252Z" fill="#FF8900"/>
<path fill-rule="evenodd" clip-rule="evenodd" d="M1036.29 132.91C1032.04 132.91 1028.35 136.655 1028.35 141.581C1028.35 146.507 1032.04 150.252 1036.29 150.252C1040.54 150.252 1044.22 146.507 1044.22 141.581C1044.22 136.655 1040.54 132.91 1036.29 132.91ZM1024.35 141.581C1024.35 134.72 1029.56 128.91 1036.29 128.91C1043.01 128.91 1048.22 134.72 1048.22 141.581C1048.22 148.441 1043.01 154.252 1036.29 154.252C1029.56 154.252 1024.35 148.441 1024.35 141.581Z" fill="black"/>
<path d="M1068.25 152.252C1073.73 152.252 1078.18 147.474 1078.18 141.581C1078.18 135.688 1073.73 130.91 1068.25 130.91C1062.76 130.91 1058.31 135.688 1058.31 141.581C1058.31 147.474 1062.76 152.252 1068.25 152.252Z" fill="white"/>
<path fill-rule="evenodd" clip-rule="evenodd" d="M1068.25 132.91C1064 132.91 1060.31 136.655 1060.31 141.581C1060.31 146.507 1064 150.252 1068.25 150.252C1072.5 150.252 1076.18 146.507 1076.18 141.581C1076.18 136.655 1072.5 132.91 1068.25 132.91ZM1056.31 141.581C1056.31 134.72 1061.52 128.91 1068.25 128.91C1074.97 128.91 1080.18 134.72 1080.18 141.581C1080.18 148.441 1074.97 154.252 1068.25 154.252C1061.52 154.252 1056.31 148.441 1056.31 141.581Z" fill="black"/>
<path d="M757 225.532L757 101.997L624 101.997L624 225.532L757 225.532Z" fill="#FF8900"/>
<path fill-rule="evenodd" clip-rule="evenodd" d="M757 99.9971C758.105 99.9971 759 100.893 759 101.997L759 225.532C759 226.636 758.105 227.532 757 227.532L624 227.532C622.895 227.532 622 226.636 622 225.532L622 101.997C622 100.892 622.895 99.9971 624 99.9971L757 99.9971ZM755 103.997L626 103.997L626 223.532L755 223.532L755 103.997Z" fill="black"/>
<path d="M757 189.348L757 138.177L718.044 101.997L662.953 101.997L624 138.177L624 189.348L662.953 225.532L718.044 225.532L757 189.348Z" fill="white"/>
<path fill-rule="evenodd" clip-rule="evenodd" d="M758.361 136.712C758.768 137.09 759 137.621 759 138.177L759 189.348C759 189.904 758.769 190.435 758.361 190.813L719.405 226.997C719.035 227.341 718.549 227.532 718.044 227.532L662.953 227.532C662.448 227.532 661.962 227.341 661.592 226.997L622.639 190.813C622.231 190.435 622 189.904 622 189.348L622 138.177C622 137.621 622.231 137.09 622.639 136.712L661.592 100.532C661.962 100.188 662.448 99.9971 662.953 99.9971L718.044 99.9971C718.549 99.9971 719.035 100.188 719.405 100.532L758.361 136.712ZM755 139.049L717.259 103.997L663.738 103.997L626 139.049L626 188.476L663.738 223.532L717.259 223.532L755 188.476L755 139.049Z" fill="black"/>
</g>
<defs>
<clipPath id="clip0">
<path d="M0 16C0 7.16344 7.16344 0 16 0H1599C1607.84 0 1615 7.16344 1615 16V152C1615 160.837 1607.84 168 1599 168H16C7.16345 168 0 160.837 0 152V16Z" fill="white"/>
</clipPath>
</defs>
</svg>
